<svg id="visual" preserveAspectRatio="none" viewBox="0 0 1920 1080"  xmlns="http://www.w3.org/2000/svg" xmlns:xlink="http://www.w3.org/1999/xlink" version="1.1"><rect x="0" y="0" width="1920" height="1080" fill="#FFFFFF"></rect><defs><linearGradient id="grad1_0" x1="43.8%" y1="0%" x2="100%" y2="100%"><stop offset="14.444444444444446%" stop-color="#ffffff" stop-opacity="1"></stop><stop offset="85.55555555555554%" stop-color="#ffffff" stop-opacity="1"></stop></linearGradient></defs><defs><linearGradient id="grad2_0" x1="0%" y1="0%" x2="56.3%" y2="100%"><stop offset="14.444444444444446%" stop-color="#ffffff" stop-opacity="1"></stop><stop offset="85.55555555555554%" stop-color="#ffffff" stop-opacity="1"></stop></linearGradient></defs><g transform="translate(1920, 0)"><path d="M0 540C-41.6 505.8 -83.2 471.5 -120.4 449.2C-157.5 426.8 -190.1 416.2 -238 412.2C-285.9 408.2 -349.2 410.8 -381.8 381.8C-414.5 352.9 -416.4 292.3 -424.4 245C-432.3 197.7 -446.3 163.6 -466.5 125C-486.8 86.4 -513.4 43.2 -540 0L0 0Z" fill="#5A9DDF"></path></g><g transform="translate(0, 1080)"><path d="M0 -540C50.4 -544.4 100.8 -548.9 139.8 -521.6C178.7 -494.3 206.3 -435.3 226 -391.4C245.7 -347.6 257.7 -318.8 304.1 -304.1C350.4 -289.4 431.2 -288.7 441.7 -255C452.1 -221.3 392.3 -154.4 397 -106.4C401.7 -58.4 470.8 -29.2 540 0L0 0Z" fill="#5A9DDF"></path></g></svg>